<svg xmlns="http://www.w3.org/2000/svg" version="1.1" xmlns:xlink="http://www.w3.org/1999/xlink" xmlns:svgjs="http://svgjs.com/svgjs" width="1440" height="560" preserveAspectRatio="none" viewBox="0 0 1440 560">
    <g mask="url(&quot;#SvgjsMask1211&quot;)" fill="none">
        <rect width="1440" height="560" x="0" y="0" fill="rgba(35, 39, 42, 1)"></rect>
        <path d="M 0,486 C 19.2,418.6 57.6,181.8 96,149 C 134.4,116.2 153.6,332 192,322 C 230.4,312 249.6,60.6 288,99 C 326.4,137.4 345.6,491.8 384,514 C 422.4,536.2 441.6,220.8 480,210 C 518.4,199.2 537.6,451.2 576,460 C 614.4,468.8 633.6,259 672,254 C 710.4,249 729.6,457.6 768,435 C 806.4,412.4 825.6,154.6 864,141 C 902.4,127.4 921.6,356 960,367 C 998.4,378 1017.6,190.6 1056,196 C 1094.4,201.4 1113.6,421 1152,394 C 1190.4,367 1209.6,66.8 1248,61 C 1286.4,55.2 1305.6,349.4 1344,365 C 1382.4,380.6 1420.8,184.2 1440,139L1440 560L0 560z" fill="#184a7e"></path>
        <path d="M 0,191 C 24,232.2 72,412.6 120,397 C 168,381.4 192,127.2 240,113 C 288,98.8 312,299.6 360,326 C 408,352.4 432,236 480,245 C 528,254 552,376.6 600,371 C 648,365.4 672,224 720,217 C 768,210 792,359.6 840,336 C 888,312.4 912,98.2 960,99 C 1008,99.8 1032,329.6 1080,340 C 1128,350.4 1152,139 1200,151 C 1248,163 1272,390.2 1320,400 C 1368,409.8 1416,240 1440,200L1440 560L0 560z" fill="rgba(0, 105, 206, 1)"></path>
    </g>
    <defs>
        <mask id="SvgjsMask1211">
            <rect width="1440" height="560" fill="#ffffff"></rect>
        </mask>
    </defs>
</svg>